<?xml version="1.0" standalone="no"?>
<!DOCTYPE svg PUBLIC "-//W3C//DTD SVG 20010904//EN"
 "http://www.w3.org/TR/2001/REC-SVG-20010904/DTD/svg10.dtd">
<svg version="1.0" xmlns="http://www.w3.org/2000/svg"
 width="64.000000pt" height="64.000000pt" viewBox="0 0 64.000000 64.000000"
 preserveAspectRatio="xMidYMid meet">

<g transform="translate(0.000000,64.000000) scale(0.100000,-0.100000)"
fill="#000000" stroke="none">
<path d="M46 594 c-24 -23 -24 -525 0 -548 23 -24 525 -24 548 0 24 23 24 525
0 548 -23 24 -525 24 -548 0z m534 -59 l0 -45 -260 0 -260 0 0 45 0 45 260 0
260 0 0 -45z m-191 -149 c19 -20 26 -38 29 -84 4 -55 2 -62 -34 -113 -45 -64
-61 -79 -79 -72 -8 2 -34 35 -59 72 -46 67 -46 68 -36 120 12 64 14 68 54 92
39 25 91 19 125 -15z"/>
<path d="M232 258 c6 -18 34 -32 51 -25 10 4 14 13 11 22 -7 18 -68 21 -62 3z"/>
<path d="M335 260 c-9 -14 3 -30 24 -30 18 0 41 18 41 32 0 12 -58 10 -65 -2z"/>
<path d="M308 163 c7 -3 16 -2 19 1 4 3 -2 6 -13 5 -11 0 -14 -3 -6 -6z"/>
</g>
</svg>
