<?xml version="1.0" standalone="no"?>
<!DOCTYPE svg PUBLIC "-//W3C//DTD SVG 20010904//EN"
 "http://www.w3.org/TR/2001/REC-SVG-20010904/DTD/svg10.dtd">
<svg version="1.0" xmlns="http://www.w3.org/2000/svg"
 width="64.000000pt" height="64.000000pt" viewBox="0 0 64.000000 64.000000"
 preserveAspectRatio="xMidYMid meet">

<g transform="translate(0.000000,64.000000) scale(0.100000,-0.100000)"
fill="#000000" stroke="none">
<path d="M136 604 c-13 -12 -16 -38 -16 -122 0 -59 5 -114 10 -122 6 -10 31
-17 71 -20 l61 -5 -65 -48 c-57 -41 -71 -47 -115 -47 -68 0 -82 -15 -82 -90 0
-69 15 -90 66 -90 19 0 34 -4 34 -10 0 -5 -7 -10 -15 -10 -8 0 -15 -4 -15 -10
0 -6 30 -10 70 -10 40 0 70 4 70 10 0 6 -7 10 -15 10 -8 0 -15 5 -15 10 0 6
15 10 34 10 50 0 66 21 66 88 0 31 -4 64 -10 72 -5 8 -31 17 -62 20 l-53 5 67
47 c88 63 114 63 191 2 32 -25 61 -44 63 -41 3 3 -19 22 -48 43 l-53 39 63 5
c40 3 66 10 72 20 5 8 10 63 10 122 0 84 -3 110 -16 122 -23 24 -345 24 -368
0z m364 -14 c0 -6 -67 -10 -180 -10 -113 0 -180 4 -180 10 0 6 67 10 180 10
113 0 180 -4 180 -10z m0 -130 l0 -100 -180 0 -180 0 0 100 0 100 180 0 180 0
0 -100z m-240 -290 c0 -38 -4 -50 -15 -50 -8 0 -15 -4 -15 -10 0 -5 7 -10 15
-10 8 0 15 -4 15 -10 0 -6 -47 -10 -120 -10 -73 0 -120 4 -120 10 0 6 35 10
85 10 50 0 85 4 85 10 0 6 -35 10 -85 10 l-85 0 0 50 0 50 120 0 120 0 0 -50z
m-100 -120 c0 -5 -9 -10 -20 -10 -11 0 -20 5 -20 10 0 6 9 10 20 10 11 0 20
-4 20 -10z"/>
<path d="M160 400 c0 -5 5 -10 10 -10 6 0 10 5 10 10 0 6 -4 10 -10 10 -5 0
-10 -4 -10 -10z"/>
<path d="M210 400 c0 -5 5 -10 10 -10 6 0 10 5 10 10 0 6 -4 10 -10 10 -5 0
-10 -4 -10 -10z"/>
<path d="M260 400 c0 -5 5 -10 10 -10 6 0 10 5 10 10 0 6 -4 10 -10 10 -5 0
-10 -4 -10 -10z"/>
<path d="M310 400 c0 -5 5 -10 10 -10 6 0 10 5 10 10 0 6 -4 10 -10 10 -5 0
-10 -4 -10 -10z"/>
<path d="M360 400 c0 -5 5 -10 10 -10 6 0 10 5 10 10 0 6 -4 10 -10 10 -5 0
-10 -4 -10 -10z"/>
<path d="M410 400 c0 -5 5 -10 10 -10 6 0 10 5 10 10 0 6 -4 10 -10 10 -5 0
-10 -4 -10 -10z"/>
<path d="M460 400 c0 -5 5 -10 10 -10 6 0 10 5 10 10 0 6 -4 10 -10 10 -5 0
-10 -4 -10 -10z"/>
<path d="M432 241 c-30 -4 -57 -13 -62 -21 -6 -8 -10 -41 -10 -72 0 -67 16
-88 66 -88 19 0 34 -4 34 -10 0 -5 -7 -10 -15 -10 -8 0 -15 -4 -15 -10 0 -6
30 -10 70 -10 40 0 70 4 70 10 0 6 -7 10 -15 10 -8 0 -15 5 -15 10 0 6 15 10
34 10 51 0 66 21 66 90 0 74 -14 90 -80 90 -27 0 -54 2 -62 4 -7 1 -37 0 -66
-3z m188 -71 c0 -38 -4 -50 -15 -50 -8 0 -15 -4 -15 -10 0 -5 7 -10 15 -10 8
0 15 -4 15 -10 0 -6 -47 -10 -120 -10 -73 0 -120 4 -120 10 0 6 35 10 85 10
50 0 85 4 85 10 0 6 -35 10 -85 10 l-85 0 0 50 0 50 120 0 120 0 0 -50z m-100
-120 c0 -5 -9 -10 -20 -10 -11 0 -20 5 -20 10 0 6 9 10 20 10 11 0 20 -4 20
-10z"/>
</g>
</svg>
