<?xml version="1.0" standalone="no"?>
<!DOCTYPE svg PUBLIC "-//W3C//DTD SVG 20010904//EN"
 "http://www.w3.org/TR/2001/REC-SVG-20010904/DTD/svg10.dtd">
<svg version="1.0" xmlns="http://www.w3.org/2000/svg"
 width="49.000000pt" height="49.000000pt" viewBox="0 0 49.000000 49.000000"
 preserveAspectRatio="xMidYMid meet">

<g transform="translate(0.000000,49.000000) scale(0.100000,-0.100000)"
fill="#000000" stroke="none">
<path d="M303 476 c-66 -30 -92 -119 -53 -183 57 -93 194 -79 230 25 28 80
-22 158 -106 168 -22 2 -53 -2 -71 -10z m17 -21 c-7 -8 -18 -15 -24 -15 -6 0
-2 7 8 15 25 19 32 19 16 0z m106 -13 c-4 -3 -14 2 -24 12 -16 18 -16 18 6 6
13 -6 21 -14 18 -18z m-80 -9 c-10 -10 -19 5 -10 18 6 11 8 11 12 0 2 -7 1
-15 -2 -18z m44 6 c0 -5 -4 -9 -10 -9 -5 0 -10 7 -10 16 0 8 5 12 10 9 6 -3
10 -10 10 -16z m-99 -22 c-1 -4 -1 -16 -1 -27 0 -13 -7 -20 -20 -20 -23 0 -27
29 -8 48 13 13 30 12 29 -1z m169 -6 c15 -29 12 -41 -9 -41 -12 0 -20 9 -23
25 -8 39 14 49 32 16z m-110 -16 c0 -20 -5 -25 -26 -25 -20 0 -25 4 -20 16 3
9 6 20 6 25 0 5 9 9 20 9 15 0 20 -7 20 -25z m60 16 c0 -5 3 -16 6 -25 5 -12
0 -16 -20 -16 -21 0 -26 5 -26 25 0 18 5 25 20 25 11 0 20 -4 20 -9z m-122
-94 c2 -15 -1 -27 -5 -27 -15 0 -33 23 -33 43 0 30 34 16 38 -16z m62 8 c0
-29 -34 -36 -44 -9 -10 27 -7 34 19 34 20 0 25 -5 25 -25z m66 9 c-3 -9 -6
-20 -6 -25 0 -5 -9 -9 -20 -9 -15 0 -20 7 -20 25 0 20 5 25 26 25 20 0 25 -4
20 -16z m54 3 c0 -20 -26 -51 -37 -44 -18 11 -3 57 18 57 11 0 19 -6 19 -13z
m-120 -63 c0 -8 -5 -12 -10 -9 -6 4 -8 11 -5 16 9 14 15 11 15 -7z m35 7 c3
-5 1 -12 -5 -16 -5 -3 -10 1 -10 9 0 18 6 21 15 7z m-65 -16 c7 -8 8 -15 2
-15 -5 0 -15 7 -22 15 -7 8 -8 15 -2 15 5 0 15 -7 22 -15z m100 0 c-7 -8 -17
-15 -22 -15 -6 0 -5 7 2 15 7 8 17 15 22 15 6 0 5 -7 -2 -15z"/>
<path d="M87 363 c-11 -10 -8 -63 3 -63 6 0 10 11 10 25 0 24 3 25 55 25 30 0
55 5 55 10 0 11 -113 14 -123 3z"/>
<path d="M0 242 c0 -21 5 -43 12 -50 9 -9 9 -12 0 -12 -16 0 -16 -77 1 -84 10
-5 10 -7 0 -12 -7 -3 -13 -23 -13 -45 l0 -39 104 0 104 0 0 140 0 140 -104 0
-104 0 0 -38z m198 -4 c-3 -22 -8 -23 -90 -26 l-88 -3 0 26 c0 25 0 25 91 25
88 0 90 -1 87 -22z m-18 -48 c0 -6 -32 -10 -76 -10 -47 0 -73 4 -69 10 8 13
145 13 145 0z m18 -52 c-3 -22 -8 -23 -90 -26 l-88 -3 0 26 c0 25 0 25 91 25
88 0 90 -1 87 -22z m-18 -48 c0 -6 -32 -10 -75 -10 -43 0 -75 4 -75 10 0 6 32
10 75 10 43 0 75 -4 75 -10z m18 -47 c3 -22 1 -23 -87 -23 -91 0 -91 0 -91 25
l0 26 88 -3 c82 -3 87 -4 90 -25z"/>
<path d="M48 233 c7 -3 16 -2 19 1 4 3 -2 6 -13 5 -11 0 -14 -3 -6 -6z"/>
<path d="M98 233 c7 -3 16 -2 19 1 4 3 -2 6 -13 5 -11 0 -14 -3 -6 -6z"/>
<path d="M148 233 c7 -3 16 -2 19 1 4 3 -2 6 -13 5 -11 0 -14 -3 -6 -6z"/>
<path d="M45 140 c-3 -5 1 -10 9 -10 9 0 16 5 16 10 0 6 -4 10 -9 10 -6 0 -13
-4 -16 -10z"/>
<path d="M90 140 c0 -5 7 -10 15 -10 8 0 15 5 15 10 0 6 -7 10 -15 10 -8 0
-15 -4 -15 -10z"/>
<path d="M140 140 c0 -5 7 -10 15 -10 8 0 15 5 15 10 0 6 -7 10 -15 10 -8 0
-15 -4 -15 -10z"/>
<path d="M40 40 c0 -5 9 -10 20 -10 11 0 20 5 20 10 0 6 -9 10 -20 10 -11 0
-20 -4 -20 -10z"/>
<path d="M100 40 c0 -5 18 -10 40 -10 22 0 40 5 40 10 0 6 -18 10 -40 10 -22
0 -40 -4 -40 -10z"/>
<path d="M350 155 l0 -55 -55 0 c-32 0 -55 -4 -55 -10 0 -7 24 -10 63 -8 l62
3 3 63 c2 38 -1 62 -8 62 -6 0 -10 -23 -10 -55z"/>
</g>
</svg>
